<svg width="80" height="80" viewBox="0 0 80 80" fill="none" xmlns="http://www.w3.org/2000/svg">
<path d="M80 0H0V80H80V0Z" fill="#FF7C00"/>
<path d="M73.2956 6.7041H6.70471V73.2953H73.2956V6.7041Z" fill="#261300"/>
<path d="M59.9588 32.0449H53.6419C53.4792 32.0449 53.3473 32.1777 53.3473 32.3414V58.4359C53.3473 58.5997 53.4792 58.7324 53.6419 58.7324H59.9588C60.1215 58.7324 60.2535 58.5997 60.2535 58.4359V32.3414C60.2535 32.1777 60.1215 32.0449 59.9588 32.0449Z" fill="#FF7C00"/>
<path d="M56.8001 28.5183C58.8271 28.5183 60.4703 26.9372 60.4703 24.9867C60.4703 23.0362 58.8271 21.4551 56.8001 21.4551C54.7731 21.4551 53.1299 23.0362 53.1299 24.9867C53.1299 26.9372 54.7731 28.5183 56.8001 28.5183Z" fill="#FF7C00"/>
<path fill-rule="evenodd" clip-rule="evenodd" d="M39.695 49.4013L42.2848 58.0301C42.4192 58.5399 42.6828 58.6647 43.0395 58.6595H49.6717C50.1835 58.6647 50.2197 58.5086 50.1421 58.1654L39.1884 21.4031C39.1677 21.3355 39.116 21.2887 39.0127 21.2887L29.8268 21.2627C29.465 21.2627 29.4598 21.4499 29.4908 21.8036C29.6045 23.0831 29.5425 23.8009 29.2737 24.8047L19.5761 58.1862C19.4727 58.5034 19.4986 58.6595 19.9121 58.6647L26.1721 58.6595C26.8338 58.6387 26.87 58.4566 26.9837 58.1238L29.1548 49.4013H39.695ZM38.3562 42.6917H30.7521L34.4378 27.6914L38.3562 42.6917Z" fill="#FF7C00"/>
</svg>
