<svg width="41" height="41" viewBox="0 0 41 41" fill="none" xmlns="http://www.w3.org/2000/svg">
<path d="M34.3906 0.25H6.10938C2.87848 0.25 0.25 2.87848 0.25 6.10938V34.3906C0.25 37.6215 2.87848 40.25 6.10938 40.25H34.3906C37.6215 40.25 40.25 37.6215 40.25 34.3906V6.10938C40.25 2.87848 37.6215 0.25 34.3906 0.25ZM37.9062 34.3906C37.9062 36.3291 36.3291 37.9062 34.3906 37.9062H6.10938C4.1709 37.9062 2.59375 36.3291 2.59375 34.3906V6.10938C2.59375 4.1709 4.1709 2.59375 6.10938 2.59375H34.3906C36.3291 2.59375 37.9062 4.1709 37.9062 6.10938V34.3906Z" fill="#070707" stroke="#070707" stroke-width="0.5"/>
<path d="M19.0781 16.7344C19.0781 14.1495 16.9755 12.0469 14.3906 12.0469H7.35938V28.4531H14.3906C16.9755 28.4531 19.0781 26.3505 19.0781 23.7656C19.0781 22.3667 18.4614 21.1097 17.486 20.25C18.4614 19.3903 19.0781 18.1333 19.0781 16.7344ZM16.7344 23.7656C16.7344 25.058 15.683 26.1094 14.3906 26.1094H9.70312V21.4219H14.3906C15.683 21.4219 16.7344 22.4732 16.7344 23.7656ZM9.70312 19.0781V14.3906H14.3906C15.683 14.3906 16.7344 15.442 16.7344 16.7344C16.7344 18.0268 15.683 19.0781 14.3906 19.0781H9.70312Z" fill="#070707" stroke="#070707" stroke-width="0.5"/>
<path d="M27.2813 16.7344C24.0504 16.7344 21.4219 19.3629 21.4219 22.5938C21.4219 25.8246 24.0504 28.4531 27.2813 28.4531C29.3665 28.4531 31.3111 27.331 32.356 25.5244L30.3272 24.3506C29.6998 25.4355 28.5325 26.1094 27.2813 26.1094C25.7532 26.1094 24.4501 25.1298 23.9664 23.7656H33.1406V22.5938C33.1406 19.3629 30.5121 16.7344 27.2813 16.7344ZM23.9664 21.4219C24.4501 20.0577 25.7532 19.0781 27.2813 19.0781C28.8093 19.0781 30.1124 20.0577 30.5961 21.4219H23.9664Z" fill="#070707" stroke="#070707" stroke-width="0.5"/>
<path d="M22.5938 12.0469H31.9688V14.3906H22.5938V12.0469Z" fill="#070707" stroke="#070707" stroke-width="0.5"/>
</svg>
