<svg width="54" height="80" viewBox="0 0 54 80" fill="none" xmlns="http://www.w3.org/2000/svg">
<path d="M13.3333 79.9997C20.6933 79.9997 26.6667 74.0263 26.6667 66.6663V53.333H13.3333C5.97333 53.333 0 59.3063 0 66.6663C0 74.0263 5.97333 79.9997 13.3333 79.9997Z" fill="#0ACF83"/>
<path d="M0 40.0003C0 32.6403 5.97333 26.667 13.3333 26.667H26.6667V53.3337H13.3333C5.97333 53.3337 0 47.3603 0 40.0003Z" fill="#A259FF"/>
<path d="M0 13.3333C0 5.97333 5.97333 0 13.3333 0H26.6667V26.6667H13.3333C5.97333 26.6667 0 20.6933 0 13.3333Z" fill="#F24E1E"/>
<path d="M26.6666 0H40C47.36 0 53.3333 5.97333 53.3333 13.3333C53.3333 20.6933 47.36 26.6667 40 26.6667H26.6666V0Z" fill="#FF7262"/>
<path d="M53.3334 40.0003C53.3334 47.3603 47.3601 53.3337 40.0001 53.3337C32.6401 53.3337 26.6667 47.3603 26.6667 40.0003C26.6667 32.6403 32.6401 26.667 40.0001 26.667C47.3601 26.667 53.3334 32.6403 53.3334 40.0003Z" fill="#1ABCFE"/>
</svg>
