<svg width="80" height="80" viewBox="0 0 80 80" fill="none" xmlns="http://www.w3.org/2000/svg">
<path d="M80 0H0V80H80V0Z" fill="#87BCF6"/>
<path d="M73.2955 6.7041H6.70468V73.2953H73.2955V6.7041Z" fill="#252653"/>
<path fill-rule="evenodd" clip-rule="evenodd" d="M59.3125 31.4519C53.3885 28.4456 43.1895 29.9019 43.1895 37.7454C43.1895 43.5863 47.206 45.8853 52.1168 47.8149C59.0954 50.556 52.3133 55.7364 43.7943 50.3791C43.7943 50.3791 43.4893 50.2283 43.3394 50.3791C43.1895 50.53 43.1895 50.6808 43.1895 50.8368C43.1895 50.9877 43.1895 56.4646 43.1895 56.4646C46.167 57.9989 48.3898 58.7791 51.8274 58.7427C62.9155 58.6283 64.5128 47.945 58.6146 43.836C57.5446 43.087 54.6808 41.5943 53.7762 41.2458C49.0876 39.4462 49.4857 36.8872 50.9744 35.5973C52.6183 34.1669 57.1776 36.3306 59.0954 37.5373C60.2585 38.2603 60.4497 37.3605 60.4446 36.5699L60.4291 32.8302C60.4291 31.9408 60.1241 31.868 59.3125 31.4519ZM25.0711 40.7933V27.0933C25.0711 27.0256 25.3089 26.7916 25.3709 26.7916C31.1398 26.4951 34.4223 27.629 34.717 33.8288C35.053 40.9441 29.1238 41.095 25.0711 41.095V40.7933ZM18.1132 21.7672V58.5971H25.0711V46.7279C33.6211 47.3416 41.3337 44.2573 41.3337 34.3126C41.3337 30.3024 40.0931 26.2663 37.1517 23.8269C33.0421 20.4149 23.4376 21.1743 18.1132 21.7672Z" fill="#87BCF6"/>
</svg>
