<svg width="170" height="26" viewBox="0 0 170 26" fill="none" xmlns="http://www.w3.org/2000/svg">
<path d="M6.91471 25.6211C6.28429 26.1123 5.64017 26.1259 4.98235 25.662C4.32452 25.1982 4.10525 24.5843 4.32452 23.8203L6.66802 16.2485L0.706493 12.0329C0.0486696 11.5691 -0.149774 10.9551 0.111163 10.1911C0.371003 9.42715 0.898359 9.04516 1.69323 9.04516H9.05264L11.4372 1.18692C11.5743 0.804923 11.787 0.511331 12.0753 0.306144C12.3626 0.102048 12.6707 0 12.9996 0C13.3285 0 13.6366 0.102048 13.9238 0.306144C14.2122 0.511331 14.4249 0.804923 14.5619 1.18692L16.9465 9.04516H24.3059C25.1008 9.04516 25.6287 9.42715 25.8896 10.1911C26.1495 10.9551 25.9505 11.5691 25.2927 12.0329L19.3311 16.2485L21.6746 23.8203C21.8939 24.5843 21.6746 25.1982 21.0168 25.662C20.359 26.1259 19.7149 26.1123 19.0844 25.6211L12.9996 20.9962L6.91471 25.6211Z" fill="#070707"/>
<path d="M42.9147 25.6211C42.2843 26.1123 41.6402 26.1259 40.9823 25.662C40.3245 25.1982 40.1053 24.5843 40.3245 23.8203L42.668 16.2485L36.7065 12.0329C36.0487 11.5691 35.8502 10.9551 36.1112 10.1911C36.371 9.42715 36.8984 9.04516 37.6932 9.04516H45.0526L47.4372 1.18692C47.5743 0.804923 47.787 0.511331 48.0753 0.306144C48.3626 0.102048 48.6707 0 48.9996 0C49.3285 0 49.6366 0.102048 49.9238 0.306144C50.2122 0.511331 50.4249 0.804923 50.5619 1.18692L52.9465 9.04516H60.3059C61.1008 9.04516 61.6287 9.42715 61.8896 10.1911C62.1495 10.9551 61.9505 11.5691 61.2927 12.0329L55.3311 16.2485L57.6746 23.8203C57.8939 24.5843 57.6746 25.1982 57.0168 25.662C56.359 26.1259 55.7149 26.1123 55.0844 25.6211L48.9996 20.9962L42.9147 25.6211Z" fill="#070707"/>
<path d="M78.9147 25.6211C78.2843 26.1123 77.6402 26.1259 76.9823 25.662C76.3245 25.1982 76.1053 24.5843 76.3245 23.8203L78.668 16.2485L72.7065 12.0329C72.0487 11.5691 71.8502 10.9551 72.1112 10.1911C72.371 9.42715 72.8984 9.04516 73.6932 9.04516H81.0526L83.4372 1.18692C83.5743 0.804923 83.787 0.511331 84.0753 0.306144C84.3626 0.102048 84.6707 0 84.9996 0C85.3285 0 85.6366 0.102048 85.9238 0.306144C86.2122 0.511331 86.4249 0.804923 86.5619 1.18692L88.9465 9.04516H96.3059C97.1008 9.04516 97.6287 9.42715 97.8896 10.1911C98.1495 10.9551 97.9505 11.5691 97.2927 12.0329L91.3311 16.2485L93.6746 23.8203C93.8939 24.5843 93.6746 25.1982 93.0168 25.662C92.359 26.1259 91.7149 26.1123 91.0844 25.6211L84.9996 20.9962L78.9147 25.6211Z" fill="#E5E5E5"/>
<path d="M114.915 25.6211C114.284 26.1123 113.64 26.1259 112.982 25.662C112.325 25.1982 112.105 24.5843 112.325 23.8203L114.668 16.2485L108.706 12.0329C108.049 11.5691 107.85 10.9551 108.111 10.1911C108.371 9.42715 108.898 9.04516 109.693 9.04516H117.053L119.437 1.18692C119.574 0.804923 119.787 0.511331 120.075 0.306144C120.363 0.102048 120.671 0 121 0C121.328 0 121.637 0.102048 121.924 0.306144C122.212 0.511331 122.425 0.804923 122.562 1.18692L124.947 9.04516H132.306C133.101 9.04516 133.629 9.42715 133.89 10.1911C134.149 10.9551 133.95 11.5691 133.293 12.0329L127.331 16.2485L129.675 23.8203C129.894 24.5843 129.675 25.1982 129.017 25.662C128.359 26.1259 127.715 26.1123 127.084 25.6211L121 20.9962L114.915 25.6211Z" fill="#E5E5E5"/>
<path d="M150.915 25.6211C150.284 26.1123 149.64 26.1259 148.982 25.662C148.325 25.1982 148.105 24.5843 148.325 23.8203L150.668 16.2485L144.706 12.0329C144.049 11.5691 143.85 10.9551 144.111 10.1911C144.371 9.42715 144.898 9.04516 145.693 9.04516H153.053L155.437 1.18692C155.574 0.804923 155.787 0.511331 156.075 0.306144C156.363 0.102048 156.671 0 157 0C157.328 0 157.637 0.102048 157.924 0.306144C158.212 0.511331 158.425 0.804923 158.562 1.18692L160.947 9.04516H168.306C169.101 9.04516 169.629 9.42715 169.89 10.1911C170.149 10.9551 169.95 11.5691 169.293 12.0329L163.331 16.2485L165.675 23.8203C165.894 24.5843 165.675 25.1982 165.017 25.662C164.359 26.1259 163.715 26.1123 163.084 25.6211L157 20.9962L150.915 25.6211Z" fill="#E5E5E5"/>
</svg>
