<svg width="80" height="80" viewBox="0 0 80 80" fill="none" xmlns="http://www.w3.org/2000/svg">
<path d="M80 0H0V80H80V0Z" fill="#BC85F3"/>
<path d="M73.2956 6.7041H6.70471V73.2953H73.2956V6.7041Z" fill="#252653"/>
<path fill-rule="evenodd" clip-rule="evenodd" d="M32.1632 49.1828L34.9495 58.4514H42.7758L31.6618 21.1482C31.6411 21.0806 31.5894 21.0338 31.4809 21.0338L22.2847 21.0078C21.928 21.0078 21.9177 21.1951 21.9487 21.5487C22.0624 22.8334 22.0004 23.5512 21.7368 24.555L11.8841 58.4566L19.3072 58.4462L21.6179 49.1776L32.1632 49.1828ZM30.8296 42.4629H23.21L26.9061 27.4469L30.8296 42.4629ZM51.9048 46.1713L66.2702 46.1921C67.1749 45.0271 67.3403 42.8373 67.3144 41.4018C67.2162 35.5764 63.3806 30.0007 56.4538 29.9643C44.8228 29.8967 42.6207 44.6942 46.5804 53.2294C47.8262 55.9132 50.3281 57.6192 53.2643 58.4306C54.6031 58.7999 56.0247 58.9871 57.4618 58.9923C60.3049 59.0027 63.1945 58.311 65.5155 56.9795C65.5517 56.9587 65.6137 56.9587 65.6189 56.917V56.7506L65.6137 51.9291C65.6137 51.7106 65.4483 51.5858 65.2002 51.6638C62.264 52.5532 52.3183 55.3931 51.8582 46.4418C51.8531 46.3742 51.8376 46.1713 51.9048 46.1713ZM59.1056 41.3394H51.791C51.8272 37.4281 53.6106 35.2071 56.3659 35.1967C58.8678 35.1863 60.46 36.934 60.5375 41.2458C60.5375 41.4434 60.5375 41.3394 60.5375 41.3394H59.1056Z" fill="#BC85F3"/>
</svg>
