<svg width="40" height="40" viewBox="0 0 40 40" fill="none" xmlns="http://www.w3.org/2000/svg">
<path d="M20 0.5C30.7431 0.5 39.5 9.2565 39.5 19.999C39.5 30.7416 30.7431 39.498 20 39.498C9.25689 39.498 0.5 30.7416 0.5 19.999C0.5 9.2565 9.25689 0.5 20 0.5ZM24.0654 25.0078C20.6113 25.9904 16.9955 28.5397 14.2539 31C12.9293 32.1785 11.8596 33.2974 11.001 34.2139L10.5732 34.6699L11.1113 34.9863C13.7128 36.5194 16.7327 37.4209 19.9902 37.4209C22.4351 37.4209 24.7419 36.9165 26.8486 36.0264L27.2021 35.877L27.1494 35.4971C26.654 31.9225 25.7803 28.5154 24.6748 25.3252L24.5195 24.8789L24.0654 25.0078ZM36.2568 24.3867C34.764 24.2219 32.8713 24.0558 30.4717 24.1436H30.4668C29.4333 24.1923 28.3327 24.2896 27.2139 24.4355L26.6133 24.5137L26.8047 25.0889C27.7494 27.9324 28.5304 30.9449 29.0352 34.0781L29.1602 34.8545L29.8105 34.4121C33.067 32.1951 35.5327 28.8979 36.6816 25.0254L36.8516 24.4521L36.2568 24.3867ZM20.1738 15.9883C12.2819 18.1804 5.32978 18.1138 3.16406 18.0283L2.68359 18.0098L2.64551 18.4893C2.60732 18.9762 2.56738 19.4765 2.56738 20.0088C2.56743 25.2466 4.88532 29.9197 8.53613 33.1152L8.9043 33.4375L9.23438 33.0762C10.15 32.0748 11.3779 30.7992 12.8711 29.4678L12.873 29.4658C15.6817 26.9344 19.2977 24.254 23.2383 23.084L23.7637 22.9277L23.5605 22.4189C22.6793 20.2111 21.7302 18.159 20.7529 16.2432L20.5674 15.8789L20.1738 15.9883ZM32.415 8.62109C30.7211 10.6424 27.7785 13.2692 23.1191 15.0518L22.6035 15.249L22.8516 15.7432C23.8553 17.741 24.8286 19.87 25.7158 22.1689L25.8604 22.543L26.2568 22.4834C29.6261 21.9804 32.7407 21.9801 35.0938 22.1602V22.1611C35.7877 22.2174 36.1841 22.2815 36.749 22.3594L37.2588 22.4297L37.3145 21.9189C37.3835 21.288 37.4229 20.6541 37.4229 19.999C37.4229 15.6422 35.8082 11.6719 33.1768 8.61523L32.793 8.16992L32.415 8.62109ZM12.6748 4.20898C8.08094 6.32769 4.59586 10.3773 3.21973 15.3271L3.0498 15.9414L3.68652 15.9609C6.21737 16.0388 12.2682 15.9221 18.9727 14.166L19.6016 14.001L19.2812 13.4355C16.6797 8.85171 14.4915 5.91767 13.2793 4.35645L13.0361 4.04297L12.6748 4.20898ZM20 2.57715C18.5507 2.57715 17.1454 2.77529 15.8145 3.10059L15.0732 3.28223L15.5342 3.88867C16.9565 5.75959 19.0004 8.58558 21.4473 13.0107L21.6533 13.3848L22.0557 13.2383C26.6823 11.5585 29.4559 8.98909 30.9746 7.12305L31.291 6.7334L30.9004 6.41797C27.9203 4.01233 24.1372 2.57715 20 2.57715Z" fill="#070707" stroke="#070707"/>
</svg>
