<svg width="40" height="40" viewBox="0 0 40 40" fill="none" xmlns="http://www.w3.org/2000/svg">
<path d="M28.3945 0.5C34.5121 0.500164 39.5 5.49576 39.5 11.6123V28.3857C39.5 34.5025 34.5119 39.4978 28.4043 39.498H11.6152C5.49628 39.498 0.50002 34.5109 0.5 28.4053V11.6221C0.5 5.50602 5.49708 0.509848 11.6152 0.509766H12.1152V0.5H28.3945ZM11.6152 2.58594C6.60772 2.58602 2.58751 6.60691 2.57715 11.6299V28.415C2.57724 33.4117 6.59971 37.4316 11.6152 37.4316H28.4043C33.402 37.4314 37.4229 33.4099 37.4229 28.3955V11.6221C37.4229 6.60725 33.4015 2.5861 28.3945 2.58594H11.6152ZM20.0098 9.7373C25.6568 9.73739 30.2793 14.3589 30.2793 20.0039C30.2793 25.6489 25.6567 30.2695 20.0098 30.2695C14.3627 30.2695 9.74027 25.649 9.74023 20.0039C9.74023 14.3588 14.3627 9.7373 20.0098 9.7373ZM20.0098 11.8135C15.4645 11.8135 11.8174 15.4596 11.8174 20.0039C11.8174 24.5481 15.4646 28.1943 20.0098 28.1943C24.5549 28.1943 28.2021 24.5481 28.2021 20.0039C28.2021 15.4597 24.5549 11.8136 20.0098 11.8135ZM32.3174 6.66211C32.8969 6.66215 33.3552 7.12023 33.3555 7.69922C33.3555 8.27844 32.8971 8.73726 32.3174 8.7373C31.7376 8.7373 31.2793 8.27846 31.2793 7.69922C31.2796 7.1202 31.7378 6.66211 32.3174 6.66211Z" fill="#070707" stroke="#070707"/>
</svg>
