<svg width="41" height="41" viewBox="0 0 41 41" fill="none" xmlns="http://www.w3.org/2000/svg">
<path d="M34.3906 0.25H6.10938C2.87848 0.25 0.25 2.87848 0.25 6.10938V34.3906C0.25 37.6215 2.87848 40.25 6.10938 40.25H34.3906C37.6215 40.25 40.25 37.6215 40.25 34.3906V6.10938C40.25 2.87848 37.6215 0.25 34.3906 0.25ZM37.9062 34.3906C37.9062 36.3291 36.3291 37.9062 34.3906 37.9062H6.10938C4.1709 37.9062 2.59375 36.3291 2.59375 34.3906V6.10938C2.59375 4.1709 4.1709 2.59375 6.10938 2.59375H34.3906C36.3291 2.59375 37.9062 4.1709 37.9062 6.10938V34.3906Z" fill="#070707" stroke="#070707" stroke-width="0.5"/>
<path d="M26.4915 15.4473C27.3814 15.473 28.2249 15.6721 28.9847 16.1465C29.9587 16.7547 30.5527 17.645 30.9007 18.7139C31.1719 19.5467 31.2611 20.4062 31.262 21.2773C31.2642 23.7876 31.2633 26.2983 31.263 28.8086C31.263 28.8529 31.2592 28.8972 31.2562 28.9482H26.9886V28.7676L26.9896 21.8418C26.9895 21.35 26.9522 20.8635 26.8275 20.3828C26.569 19.3883 25.8805 18.9183 25.1458 18.8164C24.4125 18.7148 23.6327 18.98 23.1878 19.4521C22.7426 19.9247 22.4501 20.4598 22.4378 21.1221C22.4351 21.2773 22.4261 21.4355 22.4261 21.5918C22.4252 23.9809 22.4251 26.3706 22.4251 28.7598V28.9473H18.1673V15.7617H22.4232V17.5293L22.4319 17.5332C22.4427 17.5378 22.4555 17.543 22.4671 17.5479L22.4778 17.5527L22.4847 17.543C22.515 17.5021 22.5471 17.4614 22.5775 17.4199C23.0064 16.8286 23.4985 16.3056 24.1517 15.9521C24.8813 15.557 25.6699 15.4237 26.4915 15.4473Z" fill="#070707" stroke="#070707" stroke-width="0.0306072"/>
<path d="M15.5162 15.7578V28.9551H11.2809V15.7578H15.5162Z" fill="#070707" stroke="#070707" stroke-width="0.0306072"/>
<path d="M13.5809 9.17969C14.2486 9.1788 14.8177 9.41372 15.2206 9.81543C15.6235 10.2173 15.8609 10.7868 15.8632 11.4561C15.8653 12.1178 15.6271 12.6821 15.2186 13.0811C14.81 13.48 14.2305 13.7145 13.5497 13.7148C12.2219 13.7157 11.276 12.7749 11.2733 11.4512C11.2709 10.1265 12.2301 9.1815 13.5809 9.17969Z" fill="#070707" stroke="#070707" stroke-width="0.0306072"/>
</svg>
