<svg width="238" height="54" viewBox="0 0 238 54" fill="none" xmlns="http://www.w3.org/2000/svg">
<path fill-rule="evenodd" clip-rule="evenodd" d="M9.85016 32.3671L7.52447 36.7375L7.52407 51.4193H0.000153916L0.00145003 3.61813H7.52536L7.5248 24.4458L17.3749 3.61813H24.8988L14.4331 24.9238L24.8975 51.4193H17.1684L9.85016 32.3671ZM35.5196 40.425C35.5196 42.155 35.8729 43.3727 36.5797 44.0784C37.2865 44.784 38.2327 45.1368 39.4182 45.1368C40.6038 45.1368 41.55 44.784 42.2568 44.0784C42.9637 43.3727 43.3171 42.155 43.3171 40.425L43.3178 14.6124C43.3179 12.8824 42.9645 11.6646 42.2577 10.959C41.551 10.2533 40.6048 9.90053 39.4192 9.90053C38.2336 9.90053 37.2874 10.2533 36.5806 10.959C35.8738 11.6646 35.5204 12.8824 35.5203 14.6124L35.5196 40.425ZM27.9958 15.0905C27.9959 11.2208 28.9764 8.25037 30.9372 6.17898C32.8981 4.10758 35.7252 3.0719 39.4188 3.0719C43.1124 3.0719 45.9395 4.10758 47.9002 6.17898C49.861 8.25037 50.8413 11.2208 50.8412 15.0905L50.8405 39.9471C50.8404 43.8167 49.8599 46.7872 47.8991 48.8586C45.9382 50.93 43.1111 51.9657 39.4175 51.9657C35.7239 51.9657 32.8968 50.93 30.9361 48.8586C28.9753 46.7872 27.995 43.8167 27.9952 39.9471L27.9958 15.0905ZM63.1727 16.7977L63.1718 51.4195H56.4003L56.4016 3.61827H65.8407L73.569 32.2307L73.5698 3.61827H80.2729L80.2716 51.4195H72.5425L63.1727 16.7977ZM85.4907 15.0905C85.4908 11.2209 86.4143 8.25039 88.2611 6.179C90.1079 4.1076 92.8781 3.07192 96.5717 3.07192C100.265 3.07192 103.035 4.1076 104.882 6.179C106.729 8.25039 107.652 11.2209 107.652 15.0905L107.652 16.5928H100.538L100.539 14.6125C100.539 12.8825 100.208 11.6648 99.5468 10.9591C98.8857 10.2535 97.9623 9.90066 96.7767 9.90066C95.5911 9.90066 94.6677 10.2535 94.0065 10.9591C93.3453 11.6648 93.0147 12.8825 93.0146 14.6125C93.0146 16.2514 93.3793 17.6968 94.1089 18.9487C94.8384 20.2007 95.7504 21.3843 96.8448 22.4997C97.9391 23.6151 99.1133 24.7304 100.367 25.8458C101.621 26.9611 102.795 28.1789 103.89 29.4991C104.984 30.8194 105.896 32.3217 106.626 34.0061C107.355 35.6906 107.72 37.6709 107.72 39.9471C107.72 43.8168 106.773 46.7872 104.881 48.8586C102.989 50.93 100.196 51.9657 96.502 51.9657C92.8084 51.9657 90.0155 50.93 88.1231 48.8586C86.2308 46.7872 85.2847 43.8168 85.2848 39.9471L85.2849 37.0108H92.3984L92.3983 40.4251C92.3983 42.1551 92.7516 43.3615 93.4584 44.0444C94.1652 44.7272 95.1114 45.0687 96.297 45.0687C97.4825 45.0687 98.4287 44.7272 99.1355 44.0444C99.8424 43.3615 100.196 42.1551 100.196 40.4251C100.196 38.7862 99.8311 37.3408 99.1016 36.0889C98.372 34.8369 97.4601 33.6533 96.3657 32.5379C95.2713 31.4226 94.0972 30.3072 92.8432 29.1919C91.5893 28.0765 90.4151 26.8587 89.3208 25.5385C88.2264 24.2183 87.3145 22.7159 86.5849 21.0315C85.8554 19.3471 85.4906 17.3668 85.4907 15.0905ZM110.613 3.61811H133.869L133.869 10.4468H126.003L126.001 51.4193H118.478L118.479 10.4468H110.613L110.613 3.61811ZM153.654 51.4193C153.563 51.1006 153.471 50.8047 153.38 50.5315C153.289 50.2584 153.209 49.917 153.141 49.5072C153.073 49.0975 153.027 48.574 153.004 47.9366C152.981 47.2993 152.97 46.5026 152.97 45.5466L152.97 38.0349C152.97 35.8042 152.583 34.2336 151.808 33.3231C151.032 32.4126 149.778 31.9574 148.046 31.9574H145.446L145.446 51.4193H137.922L137.923 3.61809H149.278C153.199 3.61809 156.038 4.52858 157.793 6.34958C159.549 8.17059 160.426 10.9248 160.426 14.6124L160.426 18.3682C160.426 23.2849 158.784 26.5171 155.501 28.065C157.416 28.8389 158.727 30.1022 159.434 31.8549C160.141 33.6077 160.494 35.7359 160.494 38.2398L160.494 45.6148C160.494 46.7985 160.539 47.8342 160.631 48.7219C160.722 49.6097 160.95 50.5088 161.315 51.4193H153.654ZM145.448 10.447L145.447 25.1288H148.388C149.802 25.1288 150.908 24.7646 151.706 24.0362C152.504 23.3078 152.903 21.9875 152.903 20.0755L152.903 15.3637C152.903 13.6337 152.595 12.3818 151.98 11.6079C151.364 10.8339 150.395 10.447 149.073 10.447H145.448ZM173.374 3.61825L173.373 40.4935C173.373 42.2234 173.726 43.4298 174.433 44.1127C175.14 44.7956 176.086 45.137 177.271 45.137C178.457 45.137 179.403 44.7956 180.11 44.1127C180.817 43.4298 181.17 42.2234 181.17 40.4935L181.171 3.61825H188.285L188.284 40.0154C188.284 43.8851 187.338 46.8555 185.445 48.9269C183.553 50.9983 180.76 52.034 177.066 52.034C173.373 52.034 170.58 50.9983 168.687 48.9269C166.795 46.8555 165.849 43.8851 165.849 40.0154L165.85 3.61825H173.374ZM214.745 3.61826H238.001L238.001 10.447H230.135L230.134 51.4195H222.61L222.611 10.447H214.745L214.745 3.61826Z" fill="#1A1A1A"/>
<path fill-rule="evenodd" clip-rule="evenodd" d="M188.954 27L208.498 0L208.496 54L188.954 27Z" fill="#1A1A1A"/>
</svg>
