<svg width="200" height="48" viewBox="0 0 200 48" fill="none" xmlns="http://www.w3.org/2000/svg">
<path d="M78.7437 17.1367H85.0737V37.1038H78.7437V17.1367Z" fill="black"/>
<path d="M86.3953 17.1367H92.4922V19.8666H92.6086C94.0844 17.7216 95.9872 16.5518 98.7446 16.5518C103.094 16.5518 105.657 19.6716 105.657 24.1174V37.1038H99.327V25.4044C99.327 23.2984 98.2785 21.8553 96.2203 21.8553C94.1234 21.8553 92.7252 23.6104 92.7252 26.0672V37.1038H86.3953V17.1367Z" fill="black"/>
<path d="M85.7054 11.7947C85.7054 9.68862 84.0053 7.98156 81.9084 7.98156C79.8114 7.98156 78.1113 9.68862 78.1113 11.7947C78.1113 13.9005 79.8114 15.6075 81.9084 15.6075C84.0053 15.6075 85.7054 13.9005 85.7054 11.7947Z" fill="black"/>
<path d="M150.177 16.8482C149.996 16.8319 149.789 16.8246 149.547 16.8246C147.139 16.8246 145.508 17.8775 144.11 20.2564H143.993V17.1366H137.935V37.1035H144.265V28.134C144.265 23.978 146.557 22.0522 150.177 22.3882V16.8482Z" fill="black"/>
<path d="M181.24 24.5073C178.716 24.0395 176.464 23.8445 176.464 22.4406C176.464 21.1925 177.668 20.6076 179.221 20.6076C180.968 20.6076 182.172 21.1536 182.405 22.9476H188.23C187.92 19.0088 184.891 16.5518 179.26 16.5518C174.561 16.5518 170.677 18.7357 170.677 22.9476C170.677 27.6271 174.367 28.5631 177.823 29.1482C180.464 29.6163 182.871 29.8112 182.871 31.605C182.871 32.8921 181.667 33.594 179.765 33.594C177.856 33.594 176.593 32.7829 176.206 31.1372H170.174C170.618 35.2419 174.206 37.7278 179.803 37.7278C185.007 37.7278 188.852 35.4659 188.852 31.0983C188.852 25.9893 184.735 25.0924 181.24 24.5073Z" fill="black"/>
<path d="M159.996 21.0755C162.054 21.0755 163.53 22.5964 163.763 24.9755H155.919C156.346 22.5964 157.589 21.0755 159.996 21.0755ZM160.346 33.1258C157.744 33.1258 156.268 31.449 155.88 28.7581H170.171C170.21 24.7025 169.045 21.2315 166.676 19.0477C164.967 17.4878 162.715 16.5518 159.879 16.5518C153.821 16.5518 149.666 21.1144 149.666 27.0814C149.666 33.1258 153.705 37.6888 160.268 37.6888C162.792 37.6888 164.812 37.0259 166.481 35.8559C168.229 34.6469 169.394 32.931 169.821 31.1372H163.647C163.103 32.3851 162.016 33.1258 160.346 33.1258Z" fill="black"/>
<path d="M200 32.3953C199.707 32.4069 199.313 32.424 198.951 32.424C197.592 32.424 196.738 32.0339 196.738 30.474V21.1144H200V17.1366H196.738V10.8189H190.563V17.1366H188.62V21.1144H190.563V31.8389C190.563 36.1289 193.204 37.3376 196.893 37.3376C198.301 37.3376 199.365 37.2318 200 37.1073V32.3953Z" fill="black"/>
<path d="M116.961 32.4044C116.709 32.4142 116.417 32.424 116.145 32.424C114.786 32.424 113.931 32.0339 113.931 30.474V21.1144H116.961V17.1366H113.931V10.8189H107.757V17.1366H105.698V21.1144H107.757V31.8389C107.757 36.1289 110.397 37.3376 114.087 37.3376C115.335 37.3376 116.312 37.2542 116.961 37.1486V32.4044Z" fill="black"/>
<path d="M130.749 24.9755C130.516 22.5966 129.04 21.0755 126.982 21.0755C124.574 21.0755 123.332 22.5966 122.904 24.9755H130.749ZM116.652 27.0814C116.652 21.1146 120.807 16.552 126.865 16.552C129.7 16.552 131.953 17.4878 133.661 19.0477C136.03 21.2317 137.195 24.7025 137.156 28.7583H122.866C123.254 31.449 124.729 33.126 127.332 33.126C129.001 33.126 130.089 32.3851 130.632 31.1372H136.807C136.38 32.931 135.215 34.6469 133.467 35.8561C131.797 37.0258 129.778 37.6888 127.254 37.6888C120.691 37.6888 116.652 33.126 116.652 27.0814Z" fill="black"/>
<path d="M67.7506 22.3236C70.236 22.3236 71.634 20.8416 71.634 18.6185C71.634 16.3958 70.197 15.0308 67.7506 15.0308H62.896V22.3236H67.7506ZM56.4875 9.22011H67.4798C70.8582 9.22011 73.3437 10.156 75.0524 11.794C76.8388 13.4707 77.8485 15.8498 77.8485 18.6576C77.8485 24.0003 74.1592 27.7833 68.4505 27.7833H62.896V37.1038H56.4875V9.22011Z" fill="black"/>
<path d="M47.7981 24.0002C47.7981 37.2549 37.0981 48.0001 23.8992 48.0001C10.7002 48.0001 0.000244141 37.2549 0.000244141 24.0002C0.000244141 10.7453 10.7002 0.000270844 23.8992 0.000270844C37.0981 0.000270844 47.7981 10.7453 47.7981 24.0002Z" fill="white"/>
<path d="M23.8989 2.67029e-05C10.7 2.67029e-05 0 10.7452 0 24C0 34.1675 6.29935 42.8594 15.1895 46.3564C14.9807 44.4575 14.7919 41.5372 15.2724 39.4642C15.7067 37.5911 18.0748 27.5347 18.0748 27.5347C18.0748 27.5347 17.36 26.0969 17.36 23.9714C17.36 20.6342 19.2861 18.1428 21.6844 18.1428C23.7234 18.1428 24.7082 19.6801 24.7082 21.5235C24.7082 23.5827 23.4027 26.6614 22.729 29.5144C22.1659 31.9031 23.9218 33.8512 26.268 33.8512C30.5156 33.8512 33.7808 29.3535 33.7808 22.8611C33.7808 17.1147 29.6691 13.097 23.798 13.097C16.998 13.097 13.0066 18.2189 13.0066 23.5123C13.0066 25.575 13.7978 27.7869 14.7852 28.9893C14.9805 29.227 15.0091 29.4351 14.9509 29.6777C14.7695 30.4357 14.3664 32.0658 14.2872 32.3995C14.183 32.8388 13.9408 32.9321 13.4879 32.7204C10.5031 31.3251 8.63689 26.9427 8.63689 23.4227C8.63689 15.852 14.1144 8.89927 24.4279 8.89927C32.7184 8.89927 39.1612 14.832 39.1612 22.7605C39.1612 31.0318 33.9679 37.6885 26.7597 37.6885C24.338 37.6885 22.0613 36.4251 21.282 34.9326C21.282 34.9326 20.0837 39.515 19.7931 40.6379C19.2536 42.7225 17.7971 45.3355 16.8228 46.9296C19.0589 47.6249 21.4352 47.9999 23.8989 47.9999C37.0981 47.9999 47.798 37.2547 47.798 24C47.798 10.7452 37.0981 2.67029e-05 23.8989 2.67029e-05Z" fill="black"/>
</svg>
