<svg width="200" height="57" viewBox="0 0 200 57" fill="none" xmlns="http://www.w3.org/2000/svg">
<path d="M42.9995 10.8385C42.9668 10.5447 42.7054 10.4141 42.5094 10.4141C42.3133 10.4141 38.033 10.0876 38.033 10.0876C38.033 10.0876 35.0596 7.11683 34.7002 6.82302C34.3734 6.49656 33.7526 6.5945 33.4912 6.65979C33.4586 6.65979 32.8378 6.85567 31.8248 7.18213C30.8119 4.27663 29.0802 1.6323 25.9761 1.6323H25.6821C24.8325 0.522336 23.7216 0 22.8067 0C15.6184 0 12.1549 8.97766 11.0766 13.5481C8.26662 14.4295 6.27348 15.0172 6.04476 15.1151C4.47639 15.6048 4.44372 15.6374 4.24767 17.1065C4.0843 18.2165 0 49.7852 0 49.7852L31.7922 55.7268L49.0442 52.0051C49.0769 51.9398 43.0322 11.1323 42.9995 10.8385ZM30.0604 7.63917C29.2762 7.86769 28.3287 8.16151 27.3811 8.48797V7.90034C27.3811 6.13745 27.1524 4.70103 26.7276 3.55842C28.3614 3.75429 29.3743 5.54982 30.0604 7.63917ZM24.7345 3.91752C25.1593 5.02749 25.4533 6.5945 25.4533 8.74913V9.07559C23.6889 9.63058 21.8265 10.1856 19.8987 10.8058C20.977 6.69243 23.0354 4.66838 24.7345 3.91752ZM22.6433 1.89347C22.9701 1.89347 23.2968 2.02405 23.5582 2.21993C21.2383 3.29725 18.7878 6.00687 17.7749 11.4914C16.2392 11.9811 14.7688 12.4055 13.3638 12.8625C14.5401 8.68384 17.4808 1.89347 22.6433 1.89347Z" fill="black"/>
<path d="M42.5096 10.349C42.3135 10.349 38.0332 10.0225 38.0332 10.0225C38.0332 10.0225 35.0598 7.0517 34.7004 6.75789C34.5697 6.6273 34.4063 6.56201 34.2756 6.56201L31.8904 55.727L49.1425 52.0053C49.1425 52.0053 43.0977 11.1325 43.0651 10.8386C42.9344 10.5448 42.7056 10.4142 42.5096 10.349Z" fill="#8E8E8E"/>
<path d="M25.9763 19.8815L23.8851 26.1822C23.8851 26.1822 21.99 25.1702 19.7355 25.1702C16.37 25.1702 16.2066 27.2922 16.2066 27.8145C16.2066 30.6874 23.7217 31.7973 23.7217 38.5551C23.7217 43.8764 20.3563 47.3042 15.8145 47.3042C10.3252 47.3042 7.58057 43.909 7.58057 43.909L9.05092 39.0774C9.05092 39.0774 11.9263 41.5585 14.3442 41.5585C15.9452 41.5585 16.5987 40.3179 16.5987 39.4039C16.5987 35.6496 10.4559 35.4863 10.4559 29.2836C10.4559 24.0929 14.1808 19.0654 21.7286 19.0654C24.5386 19.0327 25.9763 19.8815 25.9763 19.8815Z" fill="white"/>
<path d="M69.1716 31.7319C67.4399 30.8178 66.5576 30.0017 66.5576 28.9243C66.5576 27.5532 67.7993 26.6718 69.7271 26.6718C71.9816 26.6718 73.9747 27.5859 73.9747 27.5859L75.5431 22.7869C75.5431 22.7869 74.1054 21.6769 69.8578 21.6769C63.9437 21.6769 59.8267 25.0721 59.8267 29.8384C59.8267 32.5481 61.7545 34.6048 64.3031 36.0738C66.3943 37.2164 67.1131 38.0652 67.1131 39.3058C67.1131 40.579 66.0675 41.6237 64.1397 41.6237C61.2971 41.6237 58.5851 40.1546 58.5851 40.1546L56.9187 44.9536C56.9187 44.9536 59.402 46.6185 63.5843 46.6185C69.6617 46.6185 74.0728 43.6151 74.0728 38.2285C74.0074 35.2903 71.8182 33.2663 69.1716 31.7319ZM93.416 21.6116C90.41 21.6116 88.0574 23.0481 86.2603 25.2027L86.195 25.1701L88.8089 11.5893H82.0453L75.4451 46.1941H82.2087L84.4632 34.3762C85.3454 29.9037 87.6653 27.1288 89.8218 27.1288C91.3575 27.1288 91.9457 28.1735 91.9457 29.6426C91.9457 30.5567 91.8803 31.7319 91.6516 32.646L89.103 46.1941H95.8666L98.5132 32.2216C98.8073 30.7525 99.0033 28.9896 99.0033 27.7817C98.9707 23.8969 96.9775 21.6116 93.416 21.6116ZM114.295 21.6116C106.126 21.6116 100.735 28.957 100.735 37.1512C100.735 42.3745 103.97 46.6185 110.047 46.6185C118.053 46.6185 123.444 39.469 123.444 31.079C123.476 26.2147 120.666 21.6116 114.295 21.6116ZM110.962 41.4604C108.642 41.4604 107.695 39.5017 107.695 37.0206C107.695 33.1357 109.688 26.835 113.38 26.835C115.765 26.835 116.582 28.9243 116.582 30.9158C116.582 35.0618 114.524 41.4604 110.962 41.4604ZM140.794 21.6116C136.219 21.6116 133.638 25.6597 133.638 25.6597H133.573L133.965 22.036H127.953C127.659 24.4845 127.103 28.2388 126.581 31.0137L121.908 55.792H128.672L130.567 45.7697H130.73C130.73 45.7697 132.135 46.6511 134.684 46.6511C142.656 46.6511 147.852 38.4896 147.852 30.2628C147.819 25.6924 145.76 21.6116 140.794 21.6116ZM134.324 41.5257C132.56 41.5257 131.514 40.5137 131.514 40.5137L132.625 34.213C133.409 29.969 135.631 27.1941 137.984 27.1941C140.075 27.1941 140.696 29.1202 140.696 30.9158C140.729 35.2903 138.115 41.5257 134.324 41.5257ZM157.491 11.9158C155.334 11.9158 153.602 13.646 153.602 15.8333C153.602 17.8247 154.877 19.2285 156.804 19.2285H156.87C158.994 19.2285 160.791 17.792 160.823 15.3109C160.856 13.3195 159.516 11.9158 157.491 11.9158ZM148.015 46.1615H154.779L159.353 22.134H152.557L148.015 46.1615ZM176.605 22.1013H171.9L172.129 20.9914C172.521 18.6735 173.893 16.6494 176.18 16.6494C177.389 16.6494 178.337 17.0085 178.337 17.0085L179.644 11.6872C179.644 11.6872 178.5 11.0996 175.952 11.0996C173.566 11.0996 171.148 11.7852 169.319 13.3522C166.999 15.3109 165.921 18.1512 165.398 21.024L165.202 22.134H162.032L161.019 27.2594H164.189L160.595 46.1941H167.358L170.952 27.2594H175.625L176.605 22.1013ZM192.91 22.134C192.91 22.134 188.662 32.8092 186.799 38.6529H186.734C186.603 36.7594 185.068 22.134 185.068 22.134H177.945L182.029 44.1374C182.094 44.6271 182.062 44.9209 181.866 45.2474C181.081 46.7817 179.742 48.2508 178.173 49.3281C176.899 50.2422 175.461 50.8625 174.318 51.2542L176.213 57C177.585 56.7061 180.461 55.5635 182.846 53.3109C185.917 50.4381 188.793 45.9656 191.733 39.8934L200 22.1013H192.91V22.134Z" fill="black"/>
</svg>
