<svg width="14" height="16" viewBox="0 0 14 16" fill="none" xmlns="http://www.w3.org/2000/svg">
<path d="M12.5714 1.1428H13.4286C13.5893 1.1428 13.7143 1.0178 13.7143 0.85709V0.285662C13.7143 0.124948 13.5893 -5.34058e-05 13.4286 -5.34058e-05H0.285714C0.125 -5.34058e-05 0 0.124948 0 0.285662V0.85709C0 1.0178 0.125 1.1428 0.285714 1.1428H1.14286C1.14286 4.44638 2.72321 6.83923 4.47321 7.99995C2.72321 9.16066 1.14286 11.5535 1.14286 14.8571H0.285714C0.125 14.8571 0 14.9821 0 15.1428V15.7142C0 15.8749 0.125 15.9999 0.285714 15.9999H13.4286C13.5893 15.9999 13.7143 15.8749 13.7143 15.7142V15.1428C13.7143 14.9821 13.5893 14.8571 13.4286 14.8571H12.5714C12.5714 11.5535 10.9911 9.16066 9.24107 7.99995C10.9911 6.83923 12.5714 4.44638 12.5714 1.1428ZM11.4286 1.1428C11.4286 2.44638 11.1339 3.59816 10.6696 4.57138H3.04464C2.58036 3.59816 2.28571 2.44638 2.28571 1.1428H11.4286ZM10.9196 11.9999H2.79464C3.45536 10.2767 4.64286 9.05352 5.83036 8.57138H7.88393C9.07143 9.05352 10.2589 10.2767 10.9196 11.9999Z" fill="white"/>
</svg>
