<svg width="18" height="14" viewBox="0 0 18 14" fill="none" xmlns="http://www.w3.org/2000/svg">
<path d="M9.48214 4.90177L10.6518 5.44641L12.3929 4.92855V3.71427C12.3929 1.65177 10.6518 -1.81198e-05 8.57143 -1.81198e-05C6.5 -1.81198e-05 4.75 1.64284 4.75 3.68748V9.2232C4.75 9.73213 4.33929 10.1339 3.83929 10.1339C3.33929 10.1339 2.92857 9.73213 2.92857 9.2232V6.88391H0C0 9.23213 0 9.25891 0 9.25891C0 11.375 1.71429 13.0893 3.83036 13.0893C5.92857 13.0893 7.66071 11.4018 7.66071 9.31248V3.8482C7.66071 3.3482 8.07143 2.93748 8.57143 2.93748C9.07143 2.93748 9.48214 3.3482 9.48214 3.8482V4.90177ZM14.2143 6.88391V9.33927C14.2143 9.83927 13.8036 10.2411 13.3036 10.2411C12.8036 10.2411 12.3929 9.83927 12.3929 9.33927V6.92855L10.6518 7.44641L9.48214 6.90177V9.29463C9.48214 11.3928 11.2054 13.0893 13.3125 13.0893C15.4286 13.0893 17.1429 11.375 17.1429 9.25891C17.1429 9.25891 17.1429 9.23213 17.1429 6.88391H14.2143Z" fill="white"/>
</svg>
