<svg width="16" height="14" viewBox="0 0 16 14" fill="none" xmlns="http://www.w3.org/2000/svg">
<path d="M8 13.7143C8.14286 13.7143 8.28572 13.6607 8.39286 13.5536L13.9554 8.19641C14.0357 8.11605 16 6.32141 16 4.17855C16 1.56248 14.4018 -1.81198e-05 11.7321 -1.81198e-05C10.1696 -1.81198e-05 8.70536 1.23213 8 1.92855C7.29464 1.23213 5.83036 -1.81198e-05 4.26786 -1.81198e-05C1.59821 -1.81198e-05 0 1.56248 0 4.17855C0 6.32141 1.96429 8.11605 2.03571 8.17855L7.60714 13.5536C7.71429 13.6607 7.85714 13.7143 8 13.7143Z" fill="white"/>
</svg>
