<svg width="11" height="17" viewBox="0 0 11 17" fill="none" xmlns="http://www.w3.org/2000/svg">
<path d="M10.1161 9.31245L0.973214 0.16959C0.866071 0.0535183 0.723214 -5.34058e-05 0.571429 -5.34058e-05C0.5 -5.34058e-05 0.419643 0.0178041 0.357143 0.04459C0.142857 0.133876 0 0.339232 0 0.571376V13.9999C0 14.2321 0.142857 14.4374 0.357143 14.5267C0.419643 14.5535 0.5 14.5714 0.571429 14.5714C0.723214 14.5714 0.866071 14.5089 0.973214 14.4017L3.75893 11.616L5.46429 15.6517C5.58929 15.9374 5.91964 16.0803 6.21429 15.9553L7.79464 15.2857C8.08036 15.1607 8.22322 14.8303 8.09822 14.5357L6.30357 10.2857H9.71429C9.94643 10.2857 10.1518 10.1428 10.2411 9.92852C10.3304 9.72316 10.2857 9.47316 10.1161 9.31245Z" fill="white"/>
</svg>
